<?xml version="1.0" encoding="UTF-8"?>
<svg xmlns="http://www.w3.org/2000/svg" xmlns:xlink="http://www.w3.org/1999/xlink" width="2000px" height="2000px" viewBox="0 0 2000 2000" version="1.1">
<g id="surface1">
<path style=" stroke:none;fill-rule:nonzero;fill:rgb(12.941176%,12.941176%,12.941176%);fill-opacity:1;" d="M 331.507812 1041.363281 C 322.410156 1029.058594 317.859375 1014.011719 317.859375 999.285156 C 317.859375 984.613281 322.375 969.628906 331.402344 957.351562 L 331.324219 957.300781 C 392.320312 865.808594 460.269531 791.449219 532.972656 733.292969 C 667.425781 625.742188 817.246094 574.851562 968.921875 574.371094 C 1119.988281 573.890625 1272.257812 623.453125 1412.347656 716.847656 C 1503.847656 777.851562 1590.421875 857.898438 1668.273438 955.222656 C 1678.386719 967.875 1683.445312 983.757812 1683.445312 999.285156 C 1683.445312 1014 1678.902344 1029.03125 1669.820312 1041.332031 C 1597.863281 1149.175781 1512.128906 1234.375 1418.40625 1296.902344 C 1289.226562 1383.085938 1144.992188 1426.175781 1000.652344 1426.175781 C 856.3125 1426.171875 712.078125 1383.082031 582.902344 1296.902344 C 489.1875 1234.378906 403.460938 1149.1875 331.507812 1041.363281 Z M 380.398438 999.285156 C 380.398438 1001.546875 380.816406 1003.460938 381.648438 1004.5 L 383.238281 1006.578125 C 450.542969 1107.460938 530.445312 1186.96875 617.59375 1245.109375 C 736.269531 1324.285156 868.519531 1363.875 1000.652344 1363.875 C 1132.785156 1363.875 1265.035156 1324.289062 1383.714844 1245.109375 C 1470.863281 1186.96875 1550.765625 1107.464844 1618.070312 1006.578125 L 1619.660156 1004.503906 C 1620.488281 1003.464844 1620.902344 1001.550781 1620.902344 999.285156 C 1620.902344 997.019531 1620.488281 995.105469 1619.660156 994.070312 C 1546.296875 902.355469 1464.425781 826.734375 1377.65625 768.886719 C 1247.667969 682.222656 1107.296875 636.226562 968.921875 636.667969 C 831.144531 637.105469 694.699219 683.613281 571.816406 781.910156 C 504.546875 835.71875 441.078125 905.417969 383.363281 991.992188 L 381.652344 994.066406 C 380.820312 995.109375 380.402344 997.023438 380.402344 999.285156 Z M 380.398438 999.285156 "/>
<path style=" stroke:none;fill-rule:nonzero;fill:rgb(12.941176%,12.941176%,12.941176%);fill-opacity:1;" d="M 1000.648438 844.410156 C 958.238281 844.410156 919.273438 861.734375 891.019531 889.984375 C 863.175781 917.828125 845.765625 956.308594 845.765625 999.28125 C 845.765625 1042.667969 862.816406 1081.410156 890.667969 1109.261719 C 918.519531 1137.113281 957.265625 1154.164062 1000.648438 1154.164062 C 1042.660156 1154.164062 1081.359375 1136.476562 1109.601562 1108.234375 C 1137.84375 1079.992188 1155.53125 1041.296875 1155.53125 999.28125 C 1155.53125 956.875 1138.207031 917.914062 1109.957031 889.664062 C 1082.109375 861.820312 1043.625 844.410156 1000.648438 844.410156 Z M 846.800781 845.765625 C 886.414062 806.160156 941.09375 781.867188 1000.648438 781.867188 C 1061 781.867188 1115.050781 806.328125 1154.175781 845.445312 C 1193.785156 885.050781 1218.074219 939.726562 1218.074219 999.28125 C 1218.074219 1058.5625 1193.328125 1112.941406 1153.820312 1152.449219 C 1114.308594 1191.960938 1059.925781 1216.703125 1000.648438 1216.703125 C 940.003906 1216.703125 885.667969 1192.695312 846.449219 1153.476562 C 807.234375 1114.261719 783.222656 1059.929688 783.222656 999.28125 C 783.222656 938.929688 807.683594 884.882812 846.800781 845.765625 Z M 846.800781 845.765625 "/>
<path style=" stroke:none;fill-rule:nonzero;fill:rgb(12.941176%,12.941176%,12.941176%);fill-opacity:1;" d="M 1042.949219 281.527344 C 1042.949219 264.257812 1028.945312 250.253906 1011.675781 250.253906 C 994.40625 250.253906 980.40625 264.257812 980.40625 281.527344 L 980.40625 469.148438 C 980.40625 486.417969 994.40625 500.421875 1011.675781 500.421875 C 1028.945312 500.421875 1042.949219 486.417969 1042.949219 469.148438 Z M 1042.949219 281.527344 "/>
<path style=" stroke:none;fill-rule:nonzero;fill:rgb(12.941176%,12.941176%,12.941176%);fill-opacity:1;" d="M 1384.109375 373.136719 C 1391.125 357.417969 1384.070312 338.988281 1368.351562 331.972656 C 1352.636719 324.957031 1334.203125 332.011719 1327.1875 347.730469 L 1250.554688 518.988281 C 1243.539062 534.703125 1250.59375 553.136719 1266.308594 560.152344 C 1282.027344 567.167969 1300.460938 560.113281 1307.472656 544.394531 Z M 1384.109375 373.136719 "/>
<path style=" stroke:none;fill-rule:nonzero;fill:rgb(12.941176%,12.941176%,12.941176%);fill-opacity:1;" d="M 674.113281 347.726562 C 667.097656 332.011719 648.664062 324.957031 632.945312 331.972656 C 617.230469 338.988281 610.175781 357.417969 617.191406 373.136719 L 693.824219 544.394531 C 700.839844 560.113281 719.273438 567.167969 734.988281 560.152344 C 750.707031 553.136719 757.761719 534.703125 750.746094 518.988281 Z M 674.113281 347.726562 "/>
</g>
</svg>
