<svg xmlns="http://www.w3.org/2000/svg" xml:space="preserve" width="1200.359" height="1200.359" style="shape-rendering:geometricPrecision;text-rendering:geometricPrecision;image-rendering:optimizeQuality;fill-rule:evenodd;clip-rule:evenodd" viewBox="0 0 6.827 6.827"><defs><style>.fil0{fill:#212121;fill-rule:nonzero}</style></defs><g id="Layer_x0020_1"><path class="fil0" d="M1.13 3.552a.243.243 0 0 1 0-.286c.208-.313.44-.566.688-.765.459-.367.97-.54 1.487-.542.515-.001 1.035.168 1.513.486.312.208.607.481.873.813a.242.242 0 0 1 .005.294 3.116 3.116 0 0 1-.858.872 2.56 2.56 0 0 1-1.425.44 2.56 2.56 0 0 1-1.425-.44 3.116 3.116 0 0 1-.857-.872zm.168-.143c0 .007.001.014.004.017l.005.008c.23.344.502.615.8.813.404.27.856.405 1.306.405.451 0 .902-.135 1.307-.405.297-.198.57-.47.8-.813l.005-.008c.003-.003.004-.01.004-.017 0-.008-.001-.015-.004-.018a3.68 3.68 0 0 0-.826-.768c-.443-.296-.922-.453-1.394-.451-.47.001-.935.16-1.354.495-.23.184-.446.421-.643.717l-.006.007c-.003.003-.004.01-.004.018z"/><path class="fil0" d="M3.413 2.88a.529.529 0 0 0 0 1.057c.144 0 .276-.06.372-.157a.527.527 0 0 0-.372-.9zm-.524.005a.742.742 0 0 1 1.266.524.74.74 0 0 1-.22.522.74.74 0 1 1-1.046-1.046zM3.558.96a.107.107 0 0 0-.214 0v.64a.107.107 0 0 0 .214 0V.96zM4.721 1.273a.106.106 0 0 0-.194-.087l-.261.584a.106.106 0 0 0 .194.087l.261-.584zM2.3 1.186a.106.106 0 0 0-.195.087l.262.584a.106.106 0 0 0 .194-.087l-.262-.584z"/></g><path style="fill:none" d="M0 0h6.827v6.827H0z"/></svg>